<svg xmlns="http://www.w3.org/2000/svg" width="260" height="120"><rect class="shadow_rect" x="2" y="2" width="258" height="118" rx="5" ry="5" stroke-linejoin="round" fill="#000000"/><rect stroke="#505050" stroke-width="1" class="card_rect" x="0" y="0" width="258" height="118" rx="5" ry="5" stroke-linejoin="round" fill="#FFFFFF"/><a href="https://github.com"><text dominant-baseline="text-before-edge" font-family="sans-serif" font-size="15" font-weight="bold" fill="#000000" x="2" y="0">C Major</text></a><a href="https://google.com"><text dominant-baseline="text-after-edge" font-family="sans-serif" font-size="12" fill="#000000" x="2" y="30">1234</text></a><rect stroke="#505050" stroke-width="1" class="note C0" x="3" y="30" width="18" height="85" fill="#AAAAAA"/><rect stroke="#505050" stroke-width="1" class="note D0" x="21" y="30" width="18" height="85" fill="#AAAAAA"/><rect stroke="#505050" stroke-width="1" class="note E0" x="39" y="30" width="18" height="85" fill="#AAAAAA"/><rect stroke="#505050" stroke-width="1" class="note F0" x="57" y="30" width="18" height="85" fill="#AAAAAA"/><rect stroke="#505050" stroke-width="1" class="note G0" x="75" y="30" width="18" height="85" fill="#AAAAAA"/><rect stroke="#505050" stroke-width="1" class="note A0" x="93" y="30" width="18" height="85" fill="#AAAAAA"/><rect stroke="#505050" stroke-width="1" class="note B0" x="111" y="30" width="18" height="85" fill="#AAAAAA"/><rect stroke="#505050" stroke-width="1" class="note C1" x="129" y="30" width="18" height="85" fill="#FF0000"/><rect stroke="#505050" stroke-width="1" class="note D1" x="147" y="30" width="18" height="85" fill="#AAAAAA"/><rect stroke="#505050" stroke-width="1" class="note E1" x="165" y="30" width="18" height="85" fill="#AAAAAA"/><rect stroke="#505050" stroke-width="1" class="note F1" x="183" y="30" width="18" height="85" fill="#AAAAAA"/><rect stroke="#505050" stroke-width="1" class="note G1" x="201" y="30" width="18" height="85" fill="#AAAAAA"/><rect stroke="#505050" stroke-width="1" class="note A1" x="219" y="30" width="18" height="85" fill="#AAAAAA"/><rect stroke="#505050" stroke-width="1" class="note B1" x="237" y="30" width="18" height="85" fill="#AAAAAA"/><rect stroke="#505050" stroke-width="1" class="note d0" x="16" y="30" width="10" height="51" fill="#505050"/><rect stroke="#505050" stroke-width="1" class="note e0" x="34" y="30" width="10" height="51" fill="#505050"/><rect stroke="#505050" stroke-width="1" class="note f0" x="70" y="30" width="10" height="51" fill="#505050"/><rect stroke="#505050" stroke-width="1" class="note a0" x="88" y="30" width="10" height="51" fill="#505050"/><rect stroke="#505050" stroke-width="1" class="note b0" x="106" y="30" width="10" height="51" fill="#505050"/><rect stroke="#505050" stroke-width="1" class="note d1" x="142" y="30" width="10" height="51" fill="#505050"/><rect stroke="#505050" stroke-width="1" class="note e1" x="160" y="30" width="10" height="51" fill="#505050"/><rect stroke="#505050" stroke-width="1" class="note f1" x="196" y="30" width="10" height="51" fill="#505050"/><rect stroke="#505050" stroke-width="1" class="note a1" x="214" y="30" width="10" height="51" fill="#505050"/><rect stroke="#505050" stroke-width="1" class="note b1" x="232" y="30" width="10" height="51" fill="#505050"/></svg>
