<svg xmlns="http://www.w3.org/2000/svg" width="264" height="125" class="card phrygian"><rect class="shadow_rect" x="5" y="5" width="256" height="117" rx="3" ry="3" fill="#000000"/><rect stroke="#505050" stroke-width="1" class="card_rect" x="3" y="3" width="256" height="117" rx="3" ry="3" fill="#FFFFFF"/><rect stroke="#505050" stroke-width="1" class="note C0" x="5" y="33" width="18" height="85" fill="#00FFCC"/><rect stroke="#505050" stroke-width="1" class="note D0" x="23" y="33" width="18" height="85" fill="#AAAAAA"/><rect stroke="#505050" stroke-width="1" class="note E0" x="41" y="33" width="18" height="85" fill="#AAAAAA"/><rect stroke="#505050" stroke-width="1" class="note F0" x="59" y="33" width="18" height="85" fill="#D83A56"/><rect stroke="#505050" stroke-width="1" class="note G0" x="77" y="33" width="18" height="85" fill="#B980F0"/><rect stroke="#505050" stroke-width="1" class="note A0" x="95" y="33" width="18" height="85" fill="#AAAAAA"/><rect stroke="#505050" stroke-width="1" class="note B0" x="113" y="33" width="18" height="85" fill="#AAAAAA"/><rect stroke="#505050" stroke-width="1" class="note C1" x="131" y="33" width="18" height="85" fill="#00FFCC"/><rect stroke="#505050" stroke-width="1" class="note D1" x="149" y="33" width="18" height="85" fill="#AAAAAA"/><rect stroke="#505050" stroke-width="1" class="note E1" x="167" y="33" width="18" height="85" fill="#AAAAAA"/><rect stroke="#505050" stroke-width="1" class="note F1" x="185" y="33" width="18" height="85" fill="#D83A56"/><rect stroke="#505050" stroke-width="1" class="note G1" x="203" y="33" width="18" height="85" fill="#B980F0"/><rect stroke="#505050" stroke-width="1" class="note A1" x="221" y="33" width="18" height="85" fill="#AAAAAA"/><rect stroke="#505050" stroke-width="1" class="note B1" x="239" y="33" width="18" height="85" fill="#AAAAAA"/><rect stroke="#505050" stroke-width="1" class="note d0" x="18" y="33" width="10" height="51" fill="#68A6FC"/><rect stroke="#505050" stroke-width="1" class="note e0" x="36" y="33" width="10" height="51" fill="#FFF47D"/><rect stroke="#505050" stroke-width="1" class="note f0" x="72" y="33" width="10" height="51" fill="#505050"/><rect stroke="#505050" stroke-width="1" class="note a0" x="90" y="33" width="10" height="51" fill="#FFFFFF"/><rect stroke="#505050" stroke-width="1" class="note b0" x="108" y="33" width="10" height="51" fill="#54E346"/><rect stroke="#505050" stroke-width="1" class="note d1" x="144" y="33" width="10" height="51" fill="#68A6FC"/><rect stroke="#505050" stroke-width="1" class="note e1" x="162" y="33" width="10" height="51" fill="#FFF47D"/><rect stroke="#505050" stroke-width="1" class="note f1" x="198" y="33" width="10" height="51" fill="#505050"/><rect stroke="#505050" stroke-width="1" class="note a1" x="216" y="33" width="10" height="51" fill="#FFFFFF"/><rect stroke="#505050" stroke-width="1" class="note b1" x="234" y="33" width="10" height="51" fill="#54E346"/><text dominant-baseline="central" font-family="sans-serif" font-size="15" font-weight="bold" fill="#000000" x="5" y="16">C phrygian | C phrygian</text></svg>
